<svg width="214" height="64" viewBox="0 0 214 64" fill="none" xmlns="http://www.w3.org/2000/svg">
<g clip-path="url(#clip0_96_30)">
<g clip-path="url(#clip1_96_30)">
<path d="M61.0363 33.4503V28.7681L74.0412 28.7937L74.0221 40.6852C70.9106 44.7902 66.1354 46.817 60.9728 46.8042C51.651 46.7849 44.6215 40.3196 44.6342 30.7757C44.6533 21.6678 51.9685 14.792 61.03 14.8049C66.0211 14.8113 70.301 16.9407 73.4887 20.6608L69.6787 23.9255C67.5387 21.4497 64.5225 19.6282 61.0236 19.6218C54.8959 19.6089 50.381 24.4194 50.3683 30.7821C50.3556 37.5424 54.68 41.9744 60.9792 41.9809C63.7795 41.9809 66.5354 40.929 68.5992 38.9919L68.6119 33.4695L61.0427 33.4567L61.0363 33.4503Z" fill="white"></path>
<path d="M83.2169 36.2788C83.5598 39.6846 85.8332 42.4683 89.5098 42.4811C92.4435 42.4811 94.3231 41.3395 95.7328 38.9535L99.3142 41.3908C96.8123 45.098 93.8786 46.8619 89.1987 46.8555C82.239 46.8426 77.8766 41.8397 77.8893 35.0794C77.902 28.2293 82.855 23.0212 89.2431 23.034C95.3709 23.0468 99.8667 27.5174 99.854 33.617C99.854 34.4573 99.7651 35.4707 99.6317 36.3109L83.2233 36.2788H83.2169ZM89.3638 27.3185C86.1252 27.3185 84.2393 29.5185 83.5344 32.4369L94.4311 32.4561C94.3041 29.4929 92.1641 27.3249 89.3638 27.3185Z" fill="white"></path>
<path d="M132.652 46.4001L132.671 34.9511C132.671 33.0526 132.677 30.9296 131.89 29.5121C131.236 28.364 130.099 27.7867 128.524 27.7803C126.689 27.7803 124.714 28.9669 123.355 30.8655C123.527 31.9687 123.571 33.2514 123.565 34.5342L123.546 46.3808L118.25 46.368L118.269 34.9191C118.269 33.0205 118.275 30.7628 117.405 29.3453C116.796 28.2806 115.704 27.7483 114.256 27.7483C112.459 27.7483 110.446 29.1529 109.176 30.7885L109.15 46.3488L103.855 46.3359L103.893 23.5728H108.75L108.966 26.6322C110.719 24.2462 113.348 23.0597 115.71 23.0661C118.161 23.0661 120.346 24.1372 121.787 26.1704C121.958 26.4334 122.092 26.7028 122.27 27.0556C124.333 24.0987 127.223 23.0853 129.934 23.0917C132.557 23.0917 134.614 24.1629 135.967 25.9331C137.668 28.1459 138.011 31.199 138.005 34.5535L137.986 46.4001L132.646 46.3873L132.652 46.4001Z" fill="white"></path>
<path d="M172.251 46.477L172.27 35.0281C172.27 33.1296 172.276 31.0066 171.489 29.5891C170.834 28.441 169.698 27.8637 168.123 27.8573C166.288 27.8573 164.313 29.0439 162.954 30.9424C163.126 32.0456 163.17 33.3284 163.164 34.6112L163.145 46.4578L157.849 46.445L157.868 34.996C157.868 33.0975 157.874 30.8398 157.004 29.4223C156.395 28.3576 155.302 27.8252 153.855 27.8252C152.057 27.8252 150.045 29.2299 148.775 30.8654L148.749 46.4257L143.453 46.4129L143.491 23.6497H148.349L148.565 26.7092C150.318 24.3232 152.946 23.1366 155.309 23.143C157.76 23.143 159.944 24.2142 161.386 26.2474C161.563 26.5104 161.69 26.7798 161.868 27.1325C163.932 24.1757 166.821 23.1623 169.533 23.1687C172.155 23.1687 174.213 24.2398 175.565 26.0101C177.267 28.2229 177.61 31.2759 177.604 34.6304L177.585 46.477L172.244 46.4642L172.251 46.477Z" fill="white"></path>
<path d="M183.065 46.4963L183.109 23.7331L188.405 23.7459L188.361 46.5091L183.065 46.4963ZM183.115 20.0194V15.0229L188.418 15.0358V20.0323L183.115 20.0194Z" fill="white"></path>
<path d="M207.614 46.5412L207.353 44.4182C205.734 46.3616 203.543 47.0607 200.959 47.0607C196.755 47.0543 192.869 44.7004 192.875 39.9284C192.888 34.2713 198.051 32.5138 202.82 32.5202C204.001 32.5202 205.404 32.6549 207.061 33.0141V32.4818C207.061 29.3902 205.715 27.5302 202.261 27.5238C199.721 27.5238 197.225 28.4859 195.301 29.4993L193.866 25.4713C196.539 24.15 199.994 23.2264 203.232 23.2328C209.62 23.2456 212.37 26.876 212.364 32.796L212.338 46.5412H207.614ZM207.061 36.4584C205.709 36.1441 204.61 36.0094 203.607 36.0094C201.111 36.0094 198.095 36.792 198.089 39.7552C198.089 42.0514 199.879 43.0712 201.931 43.0776C203.899 43.0776 205.518 42.154 207.055 40.8328V36.4584H207.061Z" fill="white"></path>
<path d="M21.1456 24.5798L3.37821 43.4497C3.20676 43.6357 2.93371 43.6806 2.71146 43.5651L0.412751 42.3593C0.228601 42.2631 0.1143 42.0706 0.10795 41.859L0 21.9885C0 21.7897 0.1016 21.6037 0.273051 21.5011L3.76556 19.3909C3.89256 19.3139 4.04496 19.2882 4.19101 19.3267L20.8725 23.6433C21.2853 23.7524 21.4377 24.2719 21.1392 24.5862L21.1456 24.5798Z" fill="#085CF0"></path>
<path d="M34.6521 27.8252V42.0193C34.6521 42.2182 34.5441 42.4106 34.3727 42.5068L19.9835 50.954C19.7295 51.1015 19.412 51.031 19.2406 50.7872L10.2235 37.8374C10.0711 37.6194 10.0902 37.3179 10.2743 37.1191L22.2441 24.4258C22.3838 24.2783 22.5934 24.2142 22.7902 24.2655L34.2266 27.2608C34.4743 27.3249 34.6457 27.5494 34.6457 27.8124L34.6521 27.8252Z" fill="white"></path>
<path d="M9.9886 38.4147L18.7834 51.0181C18.9612 51.2747 18.904 51.6275 18.65 51.807L18.1166 52.1919C17.9388 52.3202 17.7039 52.333 17.5134 52.224L4.17198 44.4631C3.85448 44.2771 3.79733 43.8409 4.05133 43.5715L9.125 38.3441C9.37265 38.094 9.7854 38.1261 9.98225 38.4147H9.9886Z" fill="white"></path>
<path d="M34.6521 25.8497V22.1104C34.6521 21.9051 34.5441 21.7191 34.3727 21.6165L17.38 11.7133C17.2086 11.6107 16.9927 11.6107 16.8212 11.7133L5.81029 18.0888C5.37214 18.339 5.46104 19.006 5.94999 19.1279L33.9536 26.4013C34.3092 26.4911 34.6521 26.2217 34.6521 25.8497Z" fill="white"></path>
<path d="M142.729 63.705L142.748 53.4169H144.552L144.539 62.1528H148.819V63.7178L142.736 63.705H142.729Z" fill="white"></path>
<path d="M154.21 63.9038C151.213 63.9038 148.933 61.5114 148.94 58.5738C148.94 55.6362 151.232 53.2566 154.229 53.263C157.239 53.263 159.525 55.6554 159.519 58.593C159.519 61.5306 157.226 63.9102 154.21 63.9038ZM154.229 54.8601C152.28 54.8601 150.851 56.4828 150.845 58.5738C150.838 60.6647 152.267 62.2939 154.217 62.3003C156.179 62.3003 157.607 60.6776 157.614 58.5866C157.62 56.4957 156.198 54.8665 154.229 54.8601Z" fill="white"></path>
<path d="M166.256 59.4846V57.926L170.581 57.9324V61.8898C169.539 63.256 167.952 63.9294 166.231 63.923C163.132 63.923 160.795 61.7679 160.795 58.593C160.795 55.5656 163.234 53.2758 166.25 53.2823C167.907 53.2823 169.336 53.9942 170.396 55.2321L169.126 56.3161C168.415 55.4887 167.412 54.8857 166.25 54.8857C164.211 54.8857 162.713 56.4828 162.706 58.5994C162.706 60.8507 164.142 62.3195 166.237 62.3259C167.171 62.3259 168.085 61.9796 168.771 61.3318V59.4974H166.256V59.4846Z" fill="white"></path>
<path d="M172.549 63.7563L172.568 53.4683H174.371L174.352 63.7627H172.549V63.7563Z" fill="white"></path>
<path d="M179.947 54.8793C179.102 54.8793 178.436 55.3027 178.429 56.0852C178.429 56.8933 179.432 57.2204 180.245 57.5026C181.744 58.0222 183.433 58.7021 183.427 60.7738C183.427 63.0379 181.382 63.9615 179.693 63.9551C178.15 63.9551 176.988 63.4035 175.883 62.3003L177.108 61.1137C177.997 61.9796 178.664 62.3837 179.712 62.3837C180.614 62.3837 181.515 61.9475 181.522 60.87C181.522 59.8822 180.493 59.5166 179.426 59.1318C178.061 58.6315 176.619 57.9516 176.626 56.1685C176.626 54.2123 178.175 53.3079 179.845 53.3079C181.109 53.3079 182.144 53.7056 183.135 54.4624L182.068 55.7709C181.547 55.3026 180.728 54.8857 179.947 54.8857V54.8793Z" fill="white"></path>
<path d="M188.361 55.0589L188.348 63.7883H186.544L186.557 55.0525H184.081V53.4875L190.831 53.5003V55.0589H188.354H188.361Z" fill="white"></path>
<path d="M191.967 63.7947L191.986 53.5067H193.79L193.771 63.8012H191.967V63.7947Z" fill="white"></path>
<path d="M200.946 62.3837C201.734 62.3837 202.489 62.1079 203.143 61.5948L204.147 62.9224C203.188 63.6087 202.077 63.9936 200.902 63.9872C197.847 63.9872 195.504 61.8449 195.511 58.6572C195.511 55.6298 197.949 53.34 200.965 53.3464C202.058 53.3464 203.016 53.6863 203.931 54.2636L203.067 55.6747C202.458 55.2321 201.727 54.9499 200.959 54.9499C198.921 54.9499 197.422 56.547 197.416 58.6636C197.416 60.9149 198.806 62.3837 200.946 62.3901V62.3837Z" fill="white"></path>
<path d="M208.884 54.9307C208.039 54.9307 207.373 55.354 207.366 56.1365C207.366 56.9446 208.37 57.2718 209.182 57.554C210.681 58.0735 212.37 58.7534 212.364 60.8251C212.364 63.0892 210.319 64.0128 208.63 64.0064C207.087 64.0064 205.925 63.4548 204.82 62.3516L206.045 61.165C206.934 62.0309 207.601 62.435 208.649 62.435C209.551 62.435 210.452 61.9988 210.459 60.9213C210.459 59.9335 209.43 59.568 208.37 59.1831C207.004 58.6828 205.563 58.0029 205.563 56.2263C205.563 54.27 207.112 53.3656 208.782 53.3656C210.046 53.3656 211.081 53.7633 212.072 54.5202L211.005 55.8286C210.484 55.3604 209.665 54.9435 208.884 54.9435V54.9307Z" fill="white"></path>
</g>
</g>
<defs>
<clipPath id="clip0_96_30">
<rect width="213.847" height="64" fill="white"></rect>
</clipPath>
<clipPath id="clip1_96_30">
<rect width="212.364" height="52.3636" fill="white" transform="translate(0 11.6364)"></rect>
</clipPath>
</defs>
</svg>