<svg width="213" height="53" viewBox="0 0 213 53" fill="none" xmlns="http://www.w3.org/2000/svg">
<g clip-path="url(#clip0_96_54)">
<path d="M61.0363 21.8139V17.1317L74.0412 17.1574L74.0221 29.0489C70.9106 33.1538 66.1354 35.1806 60.9728 35.1678C51.651 35.1486 44.6215 28.6833 44.6342 19.1393C44.6533 10.0315 51.9685 3.15568 61.03 3.16851C66.0211 3.17492 70.301 5.30436 73.4887 9.02446L69.6787 12.2892C67.5387 9.81338 64.5225 7.99181 61.0236 7.9854C54.8959 7.97257 50.381 12.783 50.3683 19.1457C50.3556 25.906 54.68 30.3381 60.9792 30.3445C63.7795 30.3445 66.5354 29.2926 68.5992 27.3556L68.6119 21.8332L61.0427 21.8203L61.0363 21.8139Z" fill="#0A2777"></path>
<path d="M83.2169 24.6425C83.5598 28.0483 85.8332 30.832 89.5098 30.8448C92.4435 30.8448 94.3231 29.7031 95.7328 27.3171L99.3142 29.7544C96.8123 33.4617 93.8786 35.2255 89.1987 35.2191C82.239 35.2063 77.8766 30.2034 77.8893 23.4431C77.902 16.593 82.855 11.3848 89.2431 11.3976C95.3709 11.4105 99.8667 15.881 99.854 21.9807C99.854 22.8209 99.7651 23.8343 99.6317 24.6746L83.2233 24.6425H83.2169ZM89.3638 15.6822C86.1252 15.6822 84.2393 17.8822 83.5344 20.8005L94.4311 20.8198C94.3041 17.8565 92.1641 15.6886 89.3638 15.6822Z" fill="#0A2777"></path>
<path d="M132.652 34.7637L132.671 23.3148C132.671 21.4162 132.677 19.2932 131.89 17.8757C131.236 16.7276 130.099 16.1504 128.524 16.144C126.689 16.144 124.714 17.3305 123.355 19.2291C123.527 20.3323 123.571 21.6151 123.565 22.8979L123.546 34.7445L118.25 34.7316L118.269 23.2827C118.269 21.3842 118.275 19.1264 117.405 17.709C116.796 16.6442 115.704 16.1119 114.256 16.1119C112.459 16.1119 110.446 17.5165 109.176 19.1521L109.15 34.7124L103.855 34.6996L103.893 11.9364H108.75L108.966 14.9958C110.719 12.6099 113.348 11.4233 115.71 11.4297C118.161 11.4297 120.346 12.5008 121.787 14.534C121.958 14.797 122.092 15.0664 122.27 15.4192C124.333 12.4623 127.223 11.4489 129.934 11.4553C132.557 11.4553 134.614 12.5265 135.967 14.2967C137.668 16.5095 138.011 19.5626 138.005 22.9171L137.986 34.7637L132.646 34.7509L132.652 34.7637Z" fill="#0A2777"></path>
<path d="M172.251 34.8407L172.27 23.3918C172.27 21.4932 172.276 19.3702 171.489 17.9527C170.834 16.8046 169.698 16.2274 168.123 16.2209C166.288 16.2209 164.313 17.4075 162.954 19.3061C163.126 20.4093 163.17 21.6921 163.164 22.9749L163.145 34.8215L157.849 34.8086L157.868 23.3597C157.868 21.4612 157.874 19.2034 157.004 17.786C156.395 16.7212 155.302 16.1889 153.855 16.1889C152.057 16.1889 150.045 17.5935 148.775 19.2291L148.749 34.7894L143.453 34.7766L143.491 12.0134H148.349L148.565 15.0728C150.318 12.6868 152.946 11.5003 155.309 11.5067C157.76 11.5067 159.944 12.5778 161.386 14.611C161.563 14.874 161.69 15.1434 161.868 15.4962C163.932 12.5393 166.821 11.5259 169.533 11.5323C172.155 11.5323 174.213 12.6035 175.565 14.3737C177.267 16.5865 177.61 19.6396 177.604 22.9941L177.585 34.8407L172.244 34.8279L172.251 34.8407Z" fill="#0A2777"></path>
<path d="M183.065 34.8599L183.109 12.0967L188.405 12.1096L188.361 34.8727L183.065 34.8599ZM183.115 8.38305V3.38657L188.418 3.39939V8.39588L183.115 8.38305Z" fill="#0A2777"></path>
<path d="M207.614 34.9048L207.353 32.7818C205.734 34.7252 203.543 35.4244 200.959 35.4244C196.755 35.4179 192.869 33.064 192.875 28.292C192.888 22.6349 198.051 20.8775 202.82 20.8839C204.001 20.8839 205.404 21.0186 207.061 21.3778V20.8454C207.061 17.7539 205.715 15.8938 202.261 15.8874C199.721 15.8874 197.225 16.8495 195.301 17.8629L193.866 13.8349C196.539 12.5137 199.994 11.5901 203.232 11.5965C209.62 11.6093 212.37 15.2396 212.364 21.1597L212.338 34.9048H207.614ZM207.061 24.8221C205.709 24.5078 204.61 24.3731 203.607 24.3731C201.111 24.3731 198.095 25.1556 198.089 28.1189C198.089 30.4151 199.879 31.4349 201.931 31.4413C203.899 31.4413 205.518 30.5177 207.055 29.1964V24.8221H207.061Z" fill="#0A2777"></path>
<path d="M21.1456 12.9434L3.37821 31.8133C3.20676 31.9993 2.93371 32.0442 2.71146 31.9287L0.412751 30.7229C0.228601 30.6267 0.1143 30.4343 0.10795 30.2226L0 10.3521C0 10.1533 0.1016 9.96731 0.273051 9.86468L3.76556 7.75449C3.89256 7.67752 4.04496 7.65187 4.19101 7.69035L20.8725 12.0069C21.2853 12.116 21.4377 12.6355 21.1392 12.9498L21.1456 12.9434Z" fill="#085CF0"></path>
<path d="M34.6521 16.1889V30.383C34.6521 30.5818 34.5441 30.7742 34.3727 30.8704L19.9835 39.3176C19.7295 39.4652 19.412 39.3946 19.2406 39.1509L10.2235 26.2011C10.0711 25.983 10.0902 25.6815 10.2743 25.4827L22.2441 12.7895C22.3838 12.6419 22.5934 12.5778 22.7902 12.6291L34.2266 15.6244C34.4743 15.6886 34.6457 15.9131 34.6457 16.176L34.6521 16.1889Z" fill="#0A2777"></path>
<path d="M9.9886 26.7783L18.7834 39.3818C18.9612 39.6383 18.904 39.9911 18.65 40.1707L18.1166 40.5555C17.9388 40.6838 17.7039 40.6966 17.5134 40.5876L4.17198 32.8267C3.85448 32.6407 3.79733 32.2045 4.05133 31.9351L9.125 26.7078C9.37265 26.4576 9.7854 26.4897 9.98225 26.7783H9.9886Z" fill="#0A2777"></path>
<path d="M34.6521 14.2134V10.474C34.6521 10.2688 34.5441 10.0828 34.3727 9.98013L17.38 0.0769676C17.2086 -0.0256559 16.9927 -0.0256559 16.8212 0.0769676L5.81029 6.45245C5.37214 6.7026 5.46104 7.36965 5.94999 7.49152L33.9536 14.765C34.3092 14.8548 34.6521 14.5854 34.6521 14.2134Z" fill="#0A2777"></path>
<path d="M142.729 52.0686L142.748 41.7806H144.552L144.539 50.5164H148.819V52.0814L142.736 52.0686H142.729Z" fill="#085CF0"></path>
<path d="M154.21 52.2674C151.213 52.2674 148.933 49.875 148.94 46.9374C148.94 43.9998 151.232 41.6202 154.229 41.6267C157.239 41.6267 159.525 44.0191 159.519 46.9567C159.519 49.8943 157.226 52.2738 154.21 52.2674ZM154.229 43.2237C152.28 43.2237 150.851 44.8465 150.845 46.9374C150.838 49.0284 152.267 50.6575 154.217 50.6639C156.179 50.6639 157.607 49.0412 157.614 46.9503C157.62 44.8593 156.198 43.2302 154.229 43.2237Z" fill="#085CF0"></path>
<path d="M166.256 47.8482V46.2896L170.581 46.296V50.2534C169.539 51.6196 167.952 52.2931 166.231 52.2867C163.132 52.2867 160.795 50.1316 160.795 46.9567C160.795 43.9293 163.234 41.6395 166.25 41.6459C167.907 41.6459 169.336 42.3579 170.396 43.5957L169.126 44.6797C168.415 43.8523 167.412 43.2494 166.25 43.2494C164.211 43.2494 162.713 44.8465 162.706 46.9631C162.706 49.2144 164.142 50.6832 166.237 50.6896C167.171 50.6896 168.085 50.3432 168.771 49.6954V47.861H166.256V47.8482Z" fill="#085CF0"></path>
<path d="M172.549 52.1199L172.568 41.8319H174.371L174.352 52.1263H172.549V52.1199Z" fill="#085CF0"></path>
<path d="M179.947 43.243C179.102 43.243 178.436 43.6663 178.429 44.4488C178.429 45.257 179.432 45.5841 180.245 45.8663C181.744 46.3858 183.433 47.0657 183.427 49.1374C183.427 51.4015 181.382 52.3252 179.693 52.3187C178.15 52.3187 176.988 51.7671 175.883 50.6639L177.108 49.4774C177.997 50.3432 178.664 50.7473 179.712 50.7473C180.614 50.7473 181.515 50.3112 181.522 49.2336C181.522 48.2459 180.493 47.8803 179.426 47.4954C178.061 46.9951 176.619 46.3153 176.626 44.5322C176.626 42.5759 178.175 41.6716 179.845 41.6716C181.109 41.6716 182.144 42.0692 183.135 42.8261L182.068 44.1345C181.547 43.6663 180.728 43.2494 179.947 43.2494V43.243Z" fill="#085CF0"></path>
<path d="M188.361 43.4226L188.348 52.152H186.544L186.557 43.4162H184.081V41.8512L190.831 41.864V43.4226H188.354H188.361Z" fill="#085CF0"></path>
<path d="M191.967 52.1584L191.986 41.8704H193.79L193.771 52.1648H191.967V52.1584Z" fill="#085CF0"></path>
<path d="M200.946 50.7473C201.734 50.7473 202.489 50.4715 203.143 49.9584L204.147 51.2861C203.188 51.9724 202.077 52.3572 200.902 52.3508C197.847 52.3508 195.504 50.2085 195.511 47.0208C195.511 43.9934 197.949 41.7036 200.965 41.71C202.058 41.71 203.016 42.05 203.931 42.6272L203.067 44.0383C202.458 43.5957 201.727 43.3135 200.959 43.3135C198.921 43.3135 197.422 44.9106 197.416 47.0272C197.416 49.2785 198.806 50.7473 200.946 50.7537V50.7473Z" fill="#085CF0"></path>
<path d="M208.884 43.2943C208.039 43.2943 207.373 43.7176 207.366 44.5001C207.366 45.3083 208.37 45.6354 209.182 45.9176C210.681 46.4371 212.37 47.117 212.364 49.1887C212.364 51.4529 210.319 52.3765 208.63 52.3701C207.087 52.3701 205.925 51.8185 204.82 50.7153L206.045 49.5287C206.934 50.3946 207.601 50.7986 208.649 50.7986C209.551 50.7986 210.452 50.3625 210.459 49.2849C210.459 48.2972 209.43 47.9316 208.37 47.5468C207.004 47.0465 205.563 46.3666 205.563 44.5899C205.563 42.6337 207.112 41.7293 208.782 41.7293C210.046 41.7293 211.081 42.127 212.072 42.8838L211.005 44.1923C210.484 43.724 209.665 43.3071 208.884 43.3071V43.2943Z" fill="#085CF0"></path>
</g>
<defs>
<clipPath id="clip0_96_54">
<rect width="212.364" height="52.3636" fill="white"></rect>
</clipPath>
</defs>
</svg>