<svg width="52" height="52" viewBox="0 0 52 52" fill="none" xmlns="http://www.w3.org/2000/svg">
<path d="M26 4.83325V39.4999" stroke="#7AB2FF" stroke-opacity="0.9" stroke-width="2" stroke-linecap="round"></path>
<path d="M26 11.3333C21.6667 11.3333 18.4167 14.5833 18.4167 17.8333C22.75 17.8333 26 14.5833 26 11.3333ZM26 11.3333C30.3333 11.3333 33.5833 14.5833 33.5833 17.8333C29.25 17.8333 26 14.5833 26 11.3333Z" stroke="#7AB2FF" stroke-opacity="0.9" stroke-width="2"></path>
<path d="M26 20C21.6667 20 18.4167 23.25 18.4167 26.5C22.75 26.5 26 23.25 26 20ZM26 20C30.3333 20 33.5833 23.25 33.5833 26.5C29.25 26.5 26 23.25 26 20Z" stroke="#7AB2FF" stroke-opacity="0.9" stroke-width="2"></path>
<path d="M26 28.6667C21.6667 28.6667 18.4167 31.9167 18.4167 35.1667C22.75 35.1667 26 31.9167 26 28.6667ZM26 28.6667C30.3333 28.6667 33.5833 31.9167 33.5833 35.1667C29.25 35.1667 26 31.9167 26 28.6667Z" stroke="#7AB2FF" stroke-opacity="0.9" stroke-width="2"></path>
</svg>