<svg width="35" height="35" viewBox="0 0 35 35" fill="none" xmlns="http://www.w3.org/2000/svg">
<g clip-path="url(#clip0_34_40)">
<path d="M27.5917 8.76467C27.3 7.90425 26.4833 7.29175 25.5208 7.29175H9.47917C8.51667 7.29175 7.71458 7.90425 7.40833 8.76467L4.375 17.5001V29.1667C4.375 29.9688 5.03125 30.6251 5.83333 30.6251H7.29167C8.09375 30.6251 8.75 29.9688 8.75 29.1667V27.7084H26.25V29.1667C26.25 29.9688 26.9062 30.6251 27.7083 30.6251H29.1667C29.9688 30.6251 30.625 29.9688 30.625 29.1667V17.5001L27.5917 8.76467ZM9.98958 10.2084H24.9958L26.5125 14.5834H8.47292L9.98958 10.2084ZM27.7083 24.7917H7.29167V17.5001H27.7083V24.7917Z" fill="#6FA2EA"></path>
<path d="M10.9375 23.3335C12.1456 23.3335 13.125 22.3541 13.125 21.146C13.125 19.9379 12.1456 18.9585 10.9375 18.9585C9.72938 18.9585 8.75 19.9379 8.75 21.146C8.75 22.3541 9.72938 23.3335 10.9375 23.3335Z" fill="#6FA2EA"></path>
<path d="M24.0625 23.3335C25.2706 23.3335 26.25 22.3541 26.25 21.146C26.25 19.9379 25.2706 18.9585 24.0625 18.9585C22.8544 18.9585 21.875 19.9379 21.875 21.146C21.875 22.3541 22.8544 23.3335 24.0625 23.3335Z" fill="#6FA2EA"></path>
</g>
<defs>
<clipPath id="clip0_34_40">
<rect width="35" height="35" fill="white"></rect>
</clipPath>
</defs>
</svg>