<svg width="40" height="41" viewBox="0 0 40 41" fill="none" xmlns="http://www.w3.org/2000/svg">
<g clip-path="url(#clip0_34_36)">
<path d="M1.66669 37.5491C1.66669 38.5057 2.41669 39.2745 3.35002 39.2745H25C25.9334 39.2745 26.6834 38.5057 26.6834 37.5491V35.8749H1.66669V37.5491ZM14.1667 15.3578C7.91669 15.3578 1.66669 18.7916 1.66669 25.6249H26.6667C26.6667 18.7916 20.4167 15.3578 14.1667 15.3578ZM6.03335 22.2083C7.88335 19.5603 11.8167 18.7745 14.1667 18.7745C16.5167 18.7745 20.45 19.5603 22.3 22.2083H6.03335ZM1.66669 29.0416H26.6667V32.4583H1.66669V29.0416ZM30 8.54158V1.70825H26.6667V8.54158H18.3334L18.7167 11.9583H34.65L32.3167 35.8749H30V39.2916H32.8667C34.2667 39.2916 35.4167 38.1812 35.5834 36.7803L38.3334 8.54158H30Z" fill="#6FA2EA"></path>
</g>
<defs>
<clipPath id="clip0_34_36">
<rect width="40" height="41" fill="white"></rect>
</clipPath>
</defs>
</svg>