<svg width="56" height="56" viewBox="0 0 56 56" fill="none" xmlns="http://www.w3.org/2000/svg">
<path d="M37.3334 8.94116H18.6667C17.378 8.94116 16.3334 9.98583 16.3334 11.2745V29.9412C16.3334 31.2298 17.378 32.2745 18.6667 32.2745H37.3334C38.622 32.2745 39.6667 31.2298 39.6667 29.9412V11.2745C39.6667 9.98583 38.622 8.94116 37.3334 8.94116Z" stroke="#7AB2FF" stroke-opacity="0.9" stroke-width="2.33"></path>
<path d="M33.8333 14.7744H22.1666V26.4411H33.8333V14.7744Z" stroke="#7AB2FF" stroke-opacity="0.9" stroke-width="2.33"></path>
<path d="M16.3333 15.9411H11.6666H16.3333ZM16.3333 20.6077H11.6666H16.3333ZM16.3333 25.2744H11.6666H16.3333ZM44.3333 15.9411H39.6666H44.3333ZM44.3333 20.6077H39.6666H44.3333ZM44.3333 25.2744H39.6666H44.3333ZM23.3333 8.94108V4.27441V8.94108ZM28 8.94108V4.27441V8.94108ZM32.6666 8.94108V4.27441V8.94108ZM23.3333 36.9411V32.2744V36.9411ZM28 36.9411V32.2744V36.9411ZM32.6666 36.9411V32.2744V36.9411Z" fill="#7AB2FF"></path>
<path d="M16.3333 15.9411H11.6666M16.3333 20.6077H11.6666M16.3333 25.2744H11.6666M44.3333 15.9411H39.6666M44.3333 20.6077H39.6666M44.3333 25.2744H39.6666M23.3333 8.94108V4.27441M28 8.94108V4.27441M32.6666 8.94108V4.27441M23.3333 36.9411V32.2744M28 36.9411V32.2744M32.6666 36.9411V32.2744" stroke="#7AB2FF" stroke-opacity="0.9" stroke-width="2.33" stroke-linecap="round"></path>
</svg>