<svg width="39" height="40" viewBox="0 0 39 40" fill="none" xmlns="http://www.w3.org/2000/svg">
<g clip-path="url(#clip0_34_14)">
<path d="M34.125 8.33341H29.835L31.6875 3.10008L27.8687 1.66675L25.4963 8.33341H4.875V11.6667L8.125 21.6667L4.875 31.6667V35.0001H34.125V31.6667L30.875 21.6667L34.125 11.6667V8.33341ZM27.7875 22.7167L30.6962 31.6667H8.30375L11.2125 22.7167L11.5538 21.6667L11.2125 20.6167L8.30375 11.6667H30.6962L27.7875 20.6167L27.4462 21.6667L27.7875 22.7167ZM21.125 15.0001H17.875V20.0001H13V23.3334H17.875V28.3334H21.125V23.3334H26V20.0001H21.125V15.0001Z" fill="#6FA2EA"></path>
</g>
<defs>
<clipPath id="clip0_34_14">
<rect width="39" height="40" fill="white"></rect>
</clipPath>
</defs>
</svg>