<svg width="32" height="34" viewBox="0 0 32 34" fill="none" xmlns="http://www.w3.org/2000/svg">
<path d="M10.5 18.8438C10.5 21.9 12.845 24.375 15.75 24.375C18.655 24.375 21 21.9 21 18.8438C21 16.3875 20.0725 15.675 15.75 10.3125C11.41 15.7125 10.5 16.4063 10.5 18.8438Z" fill="#6FA2EA"></path>
<path d="M29.75 18.75C30.7125 18.75 31.5 17.9062 31.5 16.875C31.5 15.8438 30.7125 15 29.75 15H28V3.75H29.75C30.7125 3.75 31.5 2.90625 31.5 1.875C31.5 0.84375 30.7125 0 29.75 0H1.75C0.7875 0 0 0.84375 0 1.875C0 2.90625 0.7875 3.75 1.75 3.75H3.5V15H1.75C0.7875 15 0 15.8438 0 16.875C0 17.9062 0.7875 18.75 1.75 18.75H3.5V30H1.75C0.7875 30 0 30.8438 0 31.875C0 32.9062 0.7875 33.75 1.75 33.75H29.75C30.7125 33.75 31.5 32.9062 31.5 31.875C31.5 30.8438 30.7125 30 29.75 30H28V18.75H29.75ZM24.5 30H7V18.75C7.9625 18.75 8.75 17.9062 8.75 16.875C8.75 15.8438 7.9625 15 7 15V3.75H24.5V15C23.5375 15 22.75 15.8438 22.75 16.875C22.75 17.9062 23.5375 18.75 24.5 18.75V30Z" fill="#6FA2EA"></path>
</svg>